<?xml version="1.0" encoding="UTF-8"?>
<svg width="172px" height="153px" viewBox="0 0 172 153" version="1.1" xmlns="http://www.w3.org/2000/svg" xmlns:xlink="http://www.w3.org/1999/xlink">
    <!-- Generator: Sketch 52.6 (67491) - http://www.bohemiancoding.com/sketch -->
    <title>D20_Logo</title>
    <desc>Created with Sketch.</desc>
    <defs>
        <linearGradient x1="50%" y1="0%" x2="50%" y2="98.6045882%" id="linearGradient-1">
            <stop stop-color="#39C4C3" offset="0%"></stop>
            <stop stop-color="#3F5A89" offset="47.9791366%"></stop>
            <stop stop-color="#000000" stop-opacity="0" offset="100%"></stop>
        </linearGradient>
    </defs>
    <g id="D20_Logo" stroke="none" stroke-width="1" fill="none" fill-rule="evenodd">
        <rect fill="#000000" x="0" y="0" width="172" height="153"></rect>
        <g id="Logo" transform="translate(27.000000, 24.000000)" stroke="url(#linearGradient-1)">
            <path d="M5.68434189e-14,59.3421053 L17.4,63.6842105 L24.65,102.763158 L5.68434189e-14,59.3421053 Z M5.32907052e-15,55 L21.75,5.78947368 L17.4,56.4473684 L5.32907052e-15,55 Z M26.8407609,2.89473684 L69.6,27.5 L23.2,56.4473684 L26.8407609,2.89473684 Z M30.45,-3.55271368e-15 L84.1,1.44736842 L72.5,23.1578947 L30.45,-3.55271368e-15 Z M88.45,4.34210526 L114.55,47.7631579 L79.75,27.5 L88.45,4.34210526 Z M78.3,31.8421053 L114.55,52.1052632 L79.75,91.1842105 L78.3,31.8421053 Z M116,55 L87,108.552632 L81.2,96.9736842 L116,55 Z M84.1,110 L34.8,108.552632 L75.4,99.8684211 L84.1,110 Z M71.05,95.5263158 L28.7833333,105.657895 L23.2,65.1315789 L71.05,95.5263158 Z M73.95,91.1842105 L26.1,60.7894737 L72.5,31.8421053 L73.95,91.1842105 Z" id="Combined-Shape"></path>
        </g>
    </g>
</svg>